<?xml version="1.0" standalone="no"?>
<!DOCTYPE svg PUBLIC "-//W3C//DTD SVG 20010904//EN"
 "http://www.w3.org/TR/2001/REC-SVG-20010904/DTD/svg10.dtd">
<svg version="1.0" xmlns="http://www.w3.org/2000/svg"
 width="512.000000pt" height="512.000000pt" viewBox="0 0 512.000000 512.000000"
 preserveAspectRatio="xMidYMid meet">

<g transform="translate(0.000000,512.000000) scale(0.100000,-0.100000)"
fill="#000000" stroke="none">
<path d="M2140 4424 c-206 -18 -432 -138 -556 -297 -82 -105 -128 -209 -175
-393 l-41 -161 -122 -6 c-138 -6 -217 -26 -336 -88 -212 -110 -363 -310 -411
-544 -19 -92 -20 -132 -17 -839 4 -735 4 -742 26 -814 88 -287 295 -488 582
-564 l85 -23 1385 0 1385 0 85 23 c287 76 494 277 582 564 22 72 22 79 26 814
3 707 2 747 -17 839 -48 234 -199 434 -411 544 -119 62 -198 82 -336 88 l-122
6 -41 160 c-47 184 -89 282 -166 383 -106 138 -253 235 -431 285 -75 20 -102
22 -504 24 -234 1 -445 1 -470 -1z m871 -328 c90 -20 162 -58 231 -124 78 -74
112 -137 148 -273 16 -63 30 -117 30 -121 0 -5 -387 -8 -860 -8 -473 0 -860 3
-860 8 0 31 65 244 86 283 35 63 135 159 203 194 98 49 144 53 566 54 299 1
405 -3 456 -13z m972 -866 c163 -50 291 -191 326 -358 7 -36 11 -275 11 -745
0 -590 -2 -702 -15 -752 -41 -156 -153 -277 -311 -337 l-59 -23 -1375 0 -1375
0 -59 23 c-158 60 -270 181 -311 337 -13 50 -15 162 -15 752 0 470 4 709 11
745 35 166 154 299 317 355 l67 22 1361 1 c1336 0 1363 0 1427 -20z"/>
<path d="M2492 2704 c-18 -10 -45 -33 -60 -52 -26 -35 -27 -39 -30 -199 l-3
-163 -150 0 c-164 0 -201 -8 -237 -55 -52 -66 -47 -152 12 -211 44 -44 89 -54
243 -54 l132 0 3 -159 c3 -177 8 -191 78 -238 66 -46 159 -24 214 50 19 26 21
45 24 188 l3 159 132 0 c154 0 199 10 243 54 59 59 64 146 12 211 -36 47 -73
55 -238 55 l-150 0 0 150 c0 169 -11 208 -71 251 -41 29 -113 35 -157 13z"/>
</g>
</svg>
